/* XPM */
static char *_0bf3b6e8a0e4ad9b7a03d1ef69ba98alBsBofSFhMjt1OiL[] = {
/* columns rows colors chars-per-pixel */
"48 48 64 1 ",
"  c None",
". c #141013",
"X c #3B1725",
"o c #73172D",
"O c #B4202A",
"+ c #DF3E23",
"@ c #FA6A0A",
"# c #F9A31B",
"$ c #FFD541",
"% c #FFFC40",
"& c #D6F264",
"* c #9CDB43",
"= c #59C135",
"- c #14A02E",
"; c #1A7A3E",
": c #24523B",
"> c #122020",
", c #143464",
"< c #285CC4",
"1 c #249FDE",
"2 c #20D6C7",
"3 c #A6FCDB",
"4 c white",
"5 c #FEF3C0",
"6 c #FAD6B8",
"7 c #F5A097",
"8 c #E86A73",
"9 c #BC4A9B",
"0 c #793A80",
"q c #403353",
"w c #242234",
"e c #221C1A",
"r c #322B28",
"t c #71413B",
"y c #BB7547",
"u c #DBA463",
"i c #F4D29C",
"p c #DAE0EA",
"a c #B3B9D1",
"s c #8B93AF",
"d c #6D758D",
"f c #4A5462",
"g c #333941",
"h c #422433",
"j c #5B3138",
"k c #8E5252",
"l c #BA756A",
"z c #E9B5A3",
"x c #E3E6FF",
"c c #B9BFFB",
"v c #849BE4",
"b c #588DBE",
"n c #477D85",
"m c #23674E",
"M c #328464",
"N c #5DAF8D",
"B c #92DCBA",
"V c #CDF7E2",
"C c #E4D2AA",
"Z c #C7B08B",
"A c #A08662",
"S c #796755",
"D c #5A4E44",
"F c #423934",
/* pixels */
"                   ---------<                   ",
"               ----------;;;<<<<<               ",
"             ------;;-;;;;;1<<<<<<<             ",
"           ---------;;;;;;;111<<<<<<<           ",
"          --------;;;;;::;;1111<<<<<<<          ",
"         ---;--;;;;;:::::::11<111<<<<<<         ",
"       -----;;;;::;:::ccc:111<<111<<<<<qq       ",
"      ----;;;;::cc:::cc:::1111<nn1<<<<<<qq      ",
"      c--;;;;:ccc:::cxxxc11111bb<1<<<<<<qq      ",
"     xxxx;;::cxxc:cxxxxxx1111xxb<<<<<<<<qqc     ",
"    xxxxc;:ccxxxxxxxxxxxxc1xxxc1<<<<<<<q<qcb    ",
"   xxxxc;;:xxxxxxxxxcccxc11xxc11cc<-;;;<q<cbb   ",
"   xxxxcxxxxxxxxxxxc11111111111cc----;;;qcbbb   ",
"  dxxxxxxxcxxxxxxxxccc11111111ccx----;;;;bbbbn  ",
"  <xxxxxxxcxxxxxxxxxc11111111xxx---;-;;;;FFbbn  ",
" <11cccxxxxccc1cxxx111111111--------;;;;;Fbbbnn ",
" <11111111cc111cccc111111111--------;;;;ccbbbnn ",
" <1111;;cc111111cccc111111111---;;-;;::cbbbbnnn ",
" <111;;-F11111111111111111111-;--;;;;;;:bbnnnnn ",
"<<<11F-Fcxcc111111111x1111111;;-;;;;;;cbbbbbnnqq",
"<<<111Fcxxx111111111c11111111-;;;;;:;cccbbbbqqqq",
"<<<<11bc11111111111xc1111111c1-;:;;::bbbbFFFqqqq",
"<<<<<1bc111111111111111cc11c111;;:::::bb<FFFqqqq",
"<<<<111cc1111111111111c1111cc111;::::FFbb<qqqqqq",
"<<<11111xx111111111c11cxx111xc111;;:FFFFF<qqqqqq",
"<<<11x111111111111c11cxxxc1xxx11<;::FFFFFqqqqqqq",
"<<<1bxxc11ccc1111c1cxxxxxxxxxc1<<<:FFFFFF<qqqqqq",
"<<<1bxxxccx11111cxcxxxxxxxxxxc<<<1<:FFF<qqqqqqqq",
"<<<<1bxxxxxxcc1cxxxxxxxxxxxxxbb<<<<<<<<q<qqqqqqq",
" <<<<1bxxxbxxxxxxxxxxxxxbxxbbbb<<<<<<<q<bqqqqqq ",
" <<<<<<bbbbxxcxxxxxxxbxbbbbbbbb<<<<<q<qbbqqqqqq ",
" <<<<<<<b<bbbbxxxxxxb1<bbbbbbb:<<<<q<bbbnnqqqqq ",
" <<<<<<<<<;FFbbbxxbbbb<<<bbbb::::bqbbbbbnnnqqqq ",
"  <<<<<<<F::F<bbbbbbbb<<<:::::::bXbbbbnnnnqqqq  ",
"  <<<<<<<<FF<<bbbb<<bb<<:::::::b:bbbbbnnnqqqqq  ",
"   <<<<<<<<<bbb<<<<<<<<<::::FFFbbbnnnnnqqqqqq   ",
"   <<<<<<<<<<bbb<<<<<<<<:::FFbFXbbbbnXqqqqqqq   ",
"    <<<<<<<<<<bbbb<:::<<:::FbXFbbbbnnnnnqqqq    ",
"     <<<<<<<<<<<<<:::::<q::FbbbbnbnnnnXXqqq     ",
"      q<q<<<<<<<<:::::::q::bbbbbnnnnnnXXXX      ",
"      qq<q<q<q<X::::FFF::X:bbbnnnnnnnXXXXX      ",
"       qq<q<qX::X::FXFX:X:X:FnnnnnXXXXXXX       ",
"         XXXX:XX:XFXFXFX:XXXXXXXXXXXXXX         ",
"          XXXXXXXXXXFXFXXXXXXXXXXXXXXX          ",
"           XXXXXXXXXXXXXXXXXXXXXXXXXX           ",
"             XXXXXXXXXXXXXXXXXXXXXX             ",
"               XXXXXXXXXXXXXXXXXX               ",
"                   XXXXXXXXXX                   "
};
