/* XPM */
static char *bd029688037e45fd9b87b8cc00e6f083sKKnjJ92ktXKsIAQ[] = {
/* columns rows colors chars-per-pixel */
"64 64 168 2 ",
"   c #2F2E2A",
".  c #302F2B",
"X  c #3A3227",
"o  c #33322E",
"O  c #383229",
"+  c #363431",
"@  c #3C3B37",
"#  c #453B24",
"$  c #4D3D27",
"%  c #4C4125",
"&  c #494028",
"*  c #534425",
"=  c #554825",
"-  c #5B4B26",
";  c #52452A",
":  c #564829",
">  c #5A4D2C",
",  c #42413E",
"<  c #534F3D",
"1  c #604E26",
"2  c #604D28",
"3  c #645124",
"4  c #65562A",
"5  c #6B572B",
"6  c #6F5A2A",
"7  c #745C2A",
"8  c #785F2B",
"9  c #705D30",
"0  c #77602F",
"q  c #7B622E",
"w  c #746030",
"e  c #7B6532",
"r  c #504B40",
"t  c #565553",
"y  c #595858",
"u  c #74684E",
"i  c #766C53",
"p  c gray45",
"a  c #80652B",
"s  c #846B2F",
"d  c #91742D",
"f  c #8E7334",
"g  c #977630",
"h  c #957934",
"j  c #9C7B34",
"k  c #A17E31",
"l  c #8A7953",
"z  c #937F57",
"x  c #B38B2F",
"c  c #A48233",
"v  c #AB8635",
"b  c #AE8934",
"n  c #B48D34",
"m  c #B98E33",
"M  c #B98F3C",
"N  c #B39034",
"B  c #BD9334",
"V  c #B7903B",
"C  c #BC933D",
"Z  c #C3962F",
"A  c #C29535",
"S  c #C69936",
"D  c #CC9D34",
"F  c #C2943A",
"G  c #C59A3B",
"H  c #CA9D3B",
"J  c #CEA237",
"K  c #CFA239",
"L  c #D5A436",
"P  c #DBAA36",
"I  c #D2A53B",
"U  c #D7A939",
"Y  c #DBA939",
"T  c #E1AF37",
"R  c #E2AE3A",
"E  c #E5B237",
"W  c #E8B437",
"Q  c #EFB837",
"!  c #E5B23B",
"~  c #ECB63A",
"^  c #EEB83A",
"/  c #F0B63B",
"(  c #A78945",
")  c #AE8840",
"_  c #BC974A",
"`  c #BF9B4B",
"'  c #B49556",
"]  c #9D8C66",
"[  c #998D74",
"{  c #9F937A",
"}  c #AC9668",
"|  c #A7987A",
" . c #BEA163",
".. c #C29D46",
"X. c #C99F40",
"o. c #C19E48",
"O. c #CEA142",
"+. c #C3A04E",
"@. c #CEA84B",
"#. c #D2A945",
"$. c #DEAF42",
"%. c #DAAF4C",
"&. c #DFB349",
"*. c #CCA758",
"=. c #CCAC5B",
"-. c #D3AF5A",
";. c #D9B152",
":. c #D6B35D",
">. c #E2AE41",
",. c #E4B243",
"<. c #E9B741",
"1. c #EAB940",
"2. c #E5BA4D",
"3. c #E8BA4C",
"4. c #E0B755",
"5. c #E0B65D",
"6. c #C1A366",
"7. c #CCAF66",
"8. c #C1A468",
"9. c #D4B66C",
"0. c #D8B669",
"q. c #D6B86D",
"w. c #DBBB68",
"e. c #C4A770",
"r. c #C4A970",
"t. c #CBAE78",
"y. c #CFB375",
"u. c #D0B571",
"i. c #D9BB76",
"p. c #D1B77D",
"a. c #DDBE78",
"s. c #E6C16E",
"d. c #8C8B8A",
"f. c #C2AE81",
"g. c #CFB984",
"h. c #C6B88F",
"j. c #D4BC83",
"k. c #DABF83",
"l. c #CEBC94",
"z. c #CFBF9A",
"x. c #DEC180",
"c. c #D4C18F",
"v. c #D9C089",
"b. c #DBC492",
"n. c #D5C39C",
"m. c #DAC69D",
"M. c #DAC99E",
"N. c #E2C684",
"B. c #EACC87",
"V. c #E4CA8D",
"C. c #EED088",
"Z. c #E1CB96",
"A. c #E1CA98",
"S. c #E6D19F",
"D. c #DBCBA4",
"F. c #DCCDA9",
"G. c #D5CFB9",
"H. c #DED2B1",
"J. c #E6D3A5",
"K. c #E7D5A7",
"L. c #E9D8AF",
"P. c #E3D4B0",
"I. c #E4D5B5",
"U. c #E4D6B7",
"Y. c #E8DBBC",
"T. c #E4DBC7",
"R. c #E7E2D5",
"E. c #F1EDE3",
/* pixels */
"p p p p p p p p p p p p p p p p p p p p p p p p p p p p p p p p p p p p p p p p p p p p p p p p p p p p p p p p p p p p p p p p ",
"p p p p p p p p p p p p p p p p p p p p p p p p p p p p p p p p p p p p p p p p p p p p p p p p p p p p p p p p p p p p p p p p ",
"p p p p p p p p p p p p p p p p p p p p p p p p p p p p p p p p p p p p p p p p p p p p p p p p p p p p p p p p p p p p p p p p ",
"p p p p p p p p p p p p p p p p p p p p p p p p p p p p p p p p p p p p p p p p p p p p p p p p p p p p p p p p p p p p p p p p ",
"p p p p p p p p p p p p p p p p p p p p p p p p p p p p p p m.J.K.m.p p p p p p p p p p p p p p p p p p p p p p p p p p p p p p ",
"p p p p p p p p p p p p p p p p p p p p p p p p p p p p p M.2.! ! 4.m.p p p p p p p p p p p p p p p p p p p p p p p p p p p p p ",
"p p p p p p p p p p p p p p p p p p p p p p p p p p p p p ! ,.i.w.~ #.p p p p p p p p p p p p p p p p p p p p p p p p p p p p p ",
"p p p p p p p p p p p p p p p p p p p p p p p p p p p p p ~ V.p p :.~ p p p p p p p p p p p p p p p p p p p p p p p p p p p p p ",
"p p p p p p p p p p p p p p p p p p p p p p m.r.8.8.8.8. .F C ' ( C C 6.8.8.8.8.e.m.p p p p p p p p p p p p p p p p p p p p p p ",
"p p m.T.I.I.I.I.I.I.I.I.I.I.I.I.I.I.I.I.I.H.} f f f f f f f f f f f f f f f f f f ] I.I.I.I.I.I.I.I.I.I.I.I.I.I.I.I.I.I.m.p p p ",
"p p m.p.,.,.,.,.,.,.,.,.,.,.,.,.,.,.,.$.G O.S B c b n b v c c h j B j v B c B c B m X.G $.,.,.,.,.,.,.,.,.,.,.,.,.,.,.,.D.p p p ",
"p p p H.~ ^ ^ ^ ^ ^ ^ ^ ^ ^ ^ ^ ^ ^ R U ^ ^ R R 5 X B e ; 5 d O 4 q ; & c > S 0 T D ^ ^ I ! ^ ^ ^ ^ ^ ^ ^ ^ ^ ^ ^ ^ ^ ,.m.p p p ",
"p p p m.a.<.^ ^ ^ ^ ^ ^ ^ ^ ^ ^ ^ ! Y ^ ^ %.s # 8 = j e 7 b ~ ; L 0 ! L e > % w # e &.^ ~ P ~ ^ ^ ^ ^ ^ ^ ^ ^ ^ ^ ^ <.V.p p p p ",
"p p p p m.I.m Z A A F F C C F F F m ^ ^ c.m.| 0 7 g B 0 S - ! ; P 1 S k e - s 9 7 [ m.7.^ ! m F F F C C F F A A A _ m.p p p p p ",
"p p p p p m.*.^ ^ ^ ^ ^ ^ ^ ^ ^ ! K ^ -.p p B.! a L B 0 ; a ! - ! x # - Y 3 Y q R j.p p ,.^ m ~ ~ ^ ^ ^ ^ ^ ^ ^ ^ j.p p p p p p ",
"p p p p p p F.! ^ ^ ^ ^ ^ ^ ^ ^ E ~ ^ v.p p | 7 7 7 7 7 7 7 7 7 7 7 7 7 7 8 8 7 7 { p p =.^ F ^ ^ ^ ^ ^ ^ ^ ^ ^ ,.m.p p p p p p ",
"p p p p p p m.x.^ ^ ^ ^ ^ ^ ^ ^ ! Y ^ 9.p p j.B B B B B v $ 7 3 b * * d B B B B B f.p p ;.^ m ^ ^ ^ ^ ^ ^ ^ ^ ^ b.p p p p p p p ",
"p p p p p p p m.M C C M V V M V V n ^ ! m.m.g.C C C R ! ; N B 3 I # s $ ~ I C C C f.m.h.^ ^ v M M M M C M C C ) p p p p p p p p ",
"p p p p p p p p @.~ ~ ~ ~ ~ ~ ~ ~ Y Y ^ ! u.i . . . n H - ^ L 3 I # 7 - ~ 7 . . . u 9.~ ^ Y ! ~ ~ ~ ~ ~ ~ ~ ~ y.p p p p p p p p ",
"p p p p p p p p F.! ^ ^ ^ ^ ^ ^ ^ ^ L R ^ ~ S b b b P ! 2 a v : e % 7 S ^ S n b b x ~ ^ R Y ^ ^ ^ ^ ^ ^ ^ ^ ,.m.p p p p p p p p ",
"p p p p p p p p m.b.! ^ ^ ^ ^ ^ ^ ^ ^ P A ! ! ^ ^ ^ ^ ^ ! n J L n L J ^ ^ ^ ^ ^ ~ L Y m R ^ / ^ ^ ^ ^ / ^ ! D.p p p p p p p p p ",
"p p p p p p p p p m.m.D.m.m.m.m.m.m.m.m.n.l.z 7 7 6 6 6 7 7 7 7 7 6 7 6 6 6 6 6 6 l z.m.m.m.m.m.m.m.m.m.F.m.p p p p p p p p p p ",
"p p p p p p p p p p p p p p p p p p p p p p N.Y Y Y Y P Y Y Y P Y Y Y P Y Y Y Y Y g.p p p p p p p p p p p p p p p p p p p p p p ",
"p p p p p p p p p p p p p p p p p p p p p p C.^ ^ ^ ^ ^ ^ ^ ^ ^ ^ ^ ^ ^ ^ ^ ^ ^ ^ k.p p p p p p p p p p p p p p p p p p p p p p ",
"p p p p p p p p p p p p p p p p p p p p p p Z.$.Y.m.p p p ~ ~ ~ ~ ~ ..p p p m.P.>.D.p p p p p p p p p p p p p p p p p p p p p p ",
"p p p p p p p p p p p p p p p p p p p p p p p p p p p p p ~ ^ ^ ^ ^ o.p p p p p p p p p p p p p p p p p p p p p p p p p p p p p ",
"p p p p p p p p p p p p p p p p p p p p p p p p p p p p p ~ ^ ^ ^ ^ o.p p p p p p p p p p p p p p p p p p p p p p p p p p p p p ",
"p p p p p p p p p p p p p p p p p p p p p p p p p p p p p ! ^ ^ ^ ^ +.p p p p p p p p p p p p p p p p p p p p p p p p p p p p p ",
"p p p p p p p p p p p p p p p p p p p p p p p p p p p p p ,.^ ^ ^ ^ +.p p p p p p p p p p p p p p p p p p p p p p p p p p p p p ",
"p p p p p p p p p p p p p p p p p p p p p p p p p p p p p ! ^ ^ ^ ^ ` p p p p p p p p p p p p p p p p p p p p p p p p p p p p p ",
"p p p p p p p p p p p p p p p p p p p p p p p p p p p p p ~ ^ ^ ^ ^ ..p p p p p p p p p p p p p p p p p p p p p p p p p p p p p ",
"p p p p p p p p p p p p p p p p p p p p p p p p p p p p p ^ ^ ^ ^ ^ Y p p p p p p p p p p p p p p p p p p p p p p p p p p p p p ",
"p p p p p p p p p p p p p p p p p p p p p p p p p p p m.G.^ ^ ^ ^ ^ ^ m.m.p p p p p p p p p p p p p p p p p p p p p p p p p p p ",
"p p p p p p p p p p p p p p p p p p p p p p p p p p p m.q.^ ^ ^ ^ ^ ^ l.m.p p p p p p p p p p p p p p p p p p p p p p p p p p p ",
"p p p p p p p p p p p p p p p p p p p p p p p p p p m.R.2.^ ^ ^ ^ ^ Q 3.m.m.p p p p p p p p p p p p p p p p p p p p p p p p p p ",
"p p p p p p p p p p p p p p p p p p p p p p p p p p m.N.~ ^ ^ ^ ^ ^ ^ ~ b.m.p p p p p p p p p p p p p p p p p p p p p p p p p p ",
"p p p p p p p p p p p p p p p p p p p p p p p p p m.b.! ^ ^ ^ ^ ^ ^ ^ ^ 3.P.m.p p p p p p p p p p p p p p p p p p p p p p p p p ",
"p p p p p p p p p p p p p p p p p p p p p p p p m.t.~ ^ ^ ~ P L L T ^ ^ ^ 1.n.m.p p p p p p p p p p p p p p p p p p p p p p p p ",
"p p p p p p p p p p p p p p p p p p p p p p p m.:.~ ^ ~ R H 5.s.s.;.K T ~ ^ ^ 0.m.p p p p p p p p p p p p p p p p p p p p p p p ",
"p p p p p p p p p p p p p p p p p p p p p p p E.^ ^ ~ R #.L.p p p p A.I P ~ ^ ~ m.p p p p p p p p p p p p p p p p p p p p p p p ",
"p p p p p p p p p p p p p p p p p p p p p p p m.~ ~ Y N.p p p p p p p p 7.T ~ ~ m.p p p p p p p p p p p p p p p p p p p p p p p ",
"p p p p p p p p p p p p p p p p p p p p p p p m.! ~ m S.p p p p p p p p J.L W W m.p p p p p p p p p p p p p p p p p p p p p p p ",
"p p p p p p p p p p p p p p p p p p p p p p p t * * # r t t t t t t t t < % * * y p p p p p p p p p p p p p p p p p p p p p p p ",
"p p p p p p p p p p p p p p p p p p p p p p p + . . . . . . . . . . . . . . . . o p p p p p p p p p p p p p p p p p p p p p p p ",
"p p p p p p p p p p p p p p p p p p p p p p p , . . . . . . . . . . . . . . . . @ p p p p p p p p p p p p p p p p p p p p p p p ",
"p p p p p p p p p p p p p p p p p p p p p p p o . . . . . . . . . . . . . . . . + p p p p p p p p p p p p p p p p p p p p p p p ",
"p p p p p p p p p p p p p p p p p p p p p p p   . . . . . . . . . . . . . . . . . p p p p p p p p p p p p p p p p p p p p p p p ",
"p p p p p p p p p p p p p p p p p p p p p p p   . . . . . . . . . . . . . . . .   p p p p p p p p p p p p p p p p p p p p p p p ",
"p p p p p p p p p p p p p p p p p p p p p p . . . . . . . . . . . . . . . . . .   + p p p p p p p p p p p p p p p p p p p p p p ",
"p p p p p p p p p p p p p p p p p p p p p p   . . . . . . . . . . . . . . . . . . . p p p p p p p p p p p p p p p p p p p p p p ",
"p p p p p p p p p p p p p p p p p p p p p . . . . . . . . . . . . . . . . . . . . .   p p p p p p p p p p p p p p p p p p p p p ",
"p p p p p p p p p p p p p p p p p p p p   . . . . . . . . . . . . . . . . . . . . . . o p p p p p p p p p p p p p p p p p p p p ",
"p p p p p p p p p p p p p p p p p p p p . . . . . . . . . . . . . . . . . . . . . . . . p p p p p p p p p p p p p p p p p p p p ",
"p p p p p p p p p p p p p p p p p p p p d.d.d.d.d.d.d.d.d.d.d.d.d.d.d.d.d.d.d.d.d.d.d.d.p p p p p p p p p p p p p p p p p p p p ",
"p p p p p p p p p p p p p p p p p p p p p p p p p p p p p p p p p p p p p p p p p p p p p p p p p p p p p p p p p p p p p p p p ",
"p p p p p p p p p p p p p p p p p p p p p p p p p p p p p p p p p p p p p p p p p p p p p p p p p p p p p p p p p p p p p p p p ",
"p p p p p p p p p p p p p p p p p p p p p p p p p p p p p p p p p p p p p p p p p p p p p p p p p p p p p p p p p p p p p p p p ",
"p p p p p p p p p p p p p p p p p p p p p p p p p p p p p p p p p p p p p p p p p p p p p p p p p p p p p p p p p p p p p p p p ",
"p p p p p p p p p p p p p p p p p p p p p p p p p p p p p p p p p p p p p p p p p p p p p p p p p p p p p p p p p p p p p p p p ",
"p p p p p p p p p p p p p p p p p p p p p p p p p p p p p p p p p p p p p p p p p p p p p p p p p p p p p p p p p p p p p p p p ",
"p p p p p p p p p p p p p p p p p p p p p p p p p p p p p p p p p p p p p p p p p p p p p p p p p p p p p p p p p p p p p p p p ",
"p p p p p p p p p p p p p p p p p p p p p p p p p p p p p p p p p p p p p p p p p p p p p p p p p p p p p p p p p p p p p p p p ",
"p p p p p p p p p p p p p p p p p p p p p p p p p p p p p p p p p p p p p p p p p p p p p p p p p p p p p p p p p p p p p p p p ",
"p p p p p p p p p p p p p p p p p p p p p p p p p p p p p p p p p p p p p p p p p p p p p p p p p p p p p p p p p p p p p p p p "
};
