/* XPM */
static char *_eef98f8af2f48fae1f0e8f55e6f6d89O8sqPJVqV2JsQspm[] = {
/* columns rows colors chars-per-pixel */
"64 64 7 1 ",
"  c DimGray",
". c #6F6F6F",
"X c gray45",
"o c #767373",
"O c #747474",
"+ c #767575",
"@ c #7A7777",
/* pixels */
"+++++++oo+XXXXXXXXXXXXXXXXXXXXXX++XXXXXXXXXXXXXXXXXXXXXX+++X+++X",
"+++++++ooXXXXXXXXXXXXXXXXXXXXXX++ooXXXXXXXXXXXXXXXXXXXXXX++++++X",
"+++oo+XooXXXXXXXXXXXXXXXXXXXXX+++ooXXXXXX++XXXXXXXXXXXXX+++++++X",
"+++oo+oooXX++ +++XXXXXXXXXXXX+++XXXXXXXXX++ ++XXXXXXXXXX+++++XXX",
"++++++ooXXX++ +++XXXXXXXXXXXX++ooXXXXXXXX+++++XXXXXXXXXXXX++++XX",
"+++++oooXXX++  XXXXXXXXXXXXX+++ooXXXXXXXX+++++XXXXXXXXXXXX++++XX",
"++++oooXXXX+++ XXXXXXXXXXXX++ooooXXXXXXXX++++XXXXXXXXXXXXXX+++XX",
"++++ooXXXXX+++ XXXXXXXXXXX++ooooXXXXXXXX.++++XXXXXXXXXXXXXX+++XX",
"+++oooXXXXXXXXXXXXXXXXXXXX++oooXXXXXXXXX.++++XXXXXXXXXXXXXX+++XX",
"++oooXXXXXXXXXXXXX++XXXXX++oooXXXXXXXXXX.++++XXXXXXXXXXXXXXX+++X",
"+oooXXXXXXXXXXXXX+++XXXXX+oooXXXXXXXXXXX.++++XXXXXXXXXXXXXXX+++X",
"oooXXXXXXXXXXXXXX++X++XX+oooXXXXXXXXXXXX.++++XXXXXXXXXX++XXX+++X",
"oo+XXXXXXXXXXXXX.++X++XX+oooXXXXXXXXXXXX.. ++XXXXXX..  ++XXX++++",
"ooXXXXXXXXXXXXXX.+++++X++ooXXXXXXXXXXXX... ++XXXXXX..++++XXX++++",
"XXXXXXXXXXXXXX++.++++XX++ooXXXXXXooXXXX..++++XXXXXX..+++XXXXX+++",
"XXXXXXXXXXXXXX++.++++XX++ooXXXXXXooXXXX.+++++XXXXXXXX+++XXXXX+++",
"XXXXXXXXXXXXXX++.+++XX+++XXXXXXXXXXXXXX.+++++XXXXXXXX ++XXXXX+++",
"XXXXXXXXXXXXX+++.+++XX++XXXXXXXXXXXXXXX.++X++XXXXXXXX ++XXXXX+++",
"XXXX++ XXXXX+++++++XXXXXXXXXXXXXXXXXXXXXXXXXXXXXXXXXXX++XXXXX+++",
"XXX+++ XXXXX+++.+++XXXXXXXXXXXXXXXXXXXXXXXXXXXXXXXXXXX++XXXXX+++",
"XXX++  XXXXX++X.+++XXXXXXXXXXXXXXXXXXXXXXXXXXXXXXXXXXX++XXXXX+++",
"XXX++ ..XXXX++X.++XXXXXXXXXXXXXXXXXXXXXXXXXXXXXXXXXXX+++XXXXXXXX",
"XXX++ ..XXXXXXX.++XXXXXXXXXXXXXXXXXXXXXXXXXXXXXXXXXXX++XXXXXXXXX",
"XXX++ ..XXXXX+++++XXXXXXXXXXXXXXXXXXXXXXXXXXXXXXXXXXX++XXXXXXXXX",
"XXX++XXXXXXXX+++++X++XXXXXXXXXXXXXXXXXXXXXXXXXXXXXXXXXXXXXXXXXXX",
"XXX++XXXXXXXX++X+++++XXXXXXXXXXXXXXXXXXXXXXXXXXXXXXXXXXXXXXXXXXX",
"++X++XXXXXXX+++X++++XXXXXXXXXXXXXXXXXXXXXXXXXXXXXXXXXXXXXXXXXXXX",
"++XXXXXXXXX+++X+++++XXXXXXXXXXXXXXXXXXXXXXXXXXXXXXXXXXXXXXXXXXXX",
"++XXXXXXXXX++XX++++++XXXXXXXXXXXXXXXXXXXXXXXXXXXXXXXXXXXXXXXXXXX",
"++XXXXXXXXXXXX++++++++XXXXXXXXXXXXXXX++XXXXXXXXXXXXXXXXXXXXXXXXX",
"++XXXXX++++XX++++X++++XXXXXXXXXXXXXX+++XXXXXXX++XXXXXXXXXXXXXXXX",
"++XXXX+++++X++++XX+++X++XXXXXXXXX++X++XXXXXX++++XXXXXXXXXXXXXXXX",
"++XX++++X++++++XXX++++++XXXXXXX..++++XXXXXX++++XXXXXXXXXXXXXXXXX",
"++XX+++XX+++++XXXX+++++XXXXXXXX..  ++XXXXX++++XXXXXXXXXXXX++XXXX",
"++XX++XXX++X++XXX++++XXXXXXXXXXX  +++XXXXX++++XXXXXXXXXXXX++XXXX",
"++XXXXXXX++XXXXX+++XXXXXXXXXXXXX +++XXXX+++++XXXXXXXXXXXXX++XXXX",
"++XXX  XX++XXXX+++XXXXXXXXXXXXXX+++XXXXX+++++XXXXXXXXXXXXX++XXXX",
"++X++ ++X++XX++++XXXXXXXXXXXXXXX++XXXXXX++++XXXXXXXXXXXXXX++XXXX",
"++X++ ++X++XX++++XXXXXXXXXXXXXXXXXXXXXXXX+++XXXXXXX++..XXX++XXXX",
"++X++ ++X++XXXXXXXXXXXXXXXXXXXXXXXXXXXXXX++XXXXXXXX++..XXX++XXXX",
"++X++ ++X++XXXXXXXXXXXXXXXXXXXXXXXXXXXXXXXXXXXXXXXX++..XXX++XXXX",
"++X++ ++X++XXXXXXXXXXXXXXXXXXXXXXXXXXXXXXXXXXXXX++X++...XX++XXXX",
"XXX++X++++++++XXXXXXXXXXXXXXXXXXXXXXXXXXXXXXXXXX+++++....X++XXXX",
"XXX++XXX++++++XXXXXXXXXXXXXXXXXXXXXXXXXXXXXXXXXX+++++ ...X++XXXX",
"XXX++XX++++++XXXXXXXXXXXXXXXXXXXXXXXXXXXXXXXXXXXXX+++ ...X++XXXX",
"XXXXXXX+++++XXXXXXXXXXXXXXXXXXXXXXXXXXXXXXXXXXXXooo++ ...X++XXXX",
"XXXXXXX++++XXXXXXXXXXXXXXXXXXXXXXXXXXXXXXXXXXXXXoooo+ ...X++XXXX",
"XXXXXXX+++XXX@@@XXXXXXXXXXXXXXXXXXXXXXXXXXXXXXXXXoooo+XXXXXXXXXX",
"XXXXXXX++XXXX@@@XXXXXXXXXXXXXXXXXXXXXXX++XXXXXXXXXXooo+XXXXXXX++",
"XXXXXXX++XXXXXXXXXXXXXXXXXXX++XXXXXXXXX++XXXXXXXXXXooo+XXXXXX+++",
"XXXXXXX++XXXXXXXX++XXXXXXXX+++XXXXXoo++++XXXXXXXXXXXoo+XXXXX++++",
"XXXXXXXXXXXXXXXXX++XXXXXoo+++XXXXXooo+++XXXXXXXXXXXXXXXXXXXX+++.",
"++XXXXXXXXXXXXXX+++XXXXXoo++XXXXXoooo++XXXXXXXXXXXXXXXXXXXX+++..",
"+ooXXXXXXXXXXXX+++XXXXXooo++XXXXXooX++XXXXXXXXXXXXXXXXXXXXX+++..",
"+ooXXXXXXXXX++X++XXXXXXooo++XXXXooo+++XXXXXXXXXXXXXXXXXXXXX++...",
"+oooXXXXXX..+++++XXXXXXoo++XXXXXooX++XXXXXXXXXXXXXXXXXXXXX++++..",
"++oooXXXXX..++++XXXXXXooo++XXXXooo+++XXXXXXXXXXXXXXXXXXooX++++..",
"++oooXXXXX.. +++XXXXXXoo++XXXXooo+++XXXXXXXXXXXXXXXXXXXooX++++..",
"+XXooXXX++.. +++XXXXXooo++XXXooo+++XXXXXXXXXXXXXXXXXXXXoo++++...",
" XXXXXXX++.. ++XXXXXooo++XXXXooX++XXXXXXXXXXXXXXXXXXXXXoo+++....",
" XXXXXX+++. +++XXXXooo+++XXXooo+++XXXXXXXXXXXXXXXXXXXXXoo+++....",
" XXXXXX++..+++XXXXoooo++XXXXooo++XXXXXXXXXXXXXXXXXXXXXooo+++....",
" XXXXXX++..++XXXXXooo++XXXXXoo++XXXXXXXXXXXXXXXXXXXXXXoo++......",
" XXXXXXXX..++XXXXXoo+++XXXXXX+++XXXXXXXXXXXXXXXXXXXXXXoo+......."
};
