/* XPM */
static char *_c829420e1264ebdbc113b7066f1da92Qkc6jDifVOnhAnvI[] = {
/* columns rows colors chars-per-pixel */
"64 64 2 1 ",
"  c black",
". c white",
/* pixels */
".............             ............             .............",
".............             ............             .............",
".............             ............             .............",
".............             ............             .............",
".............             ............             .............",
".............             ............             .............",
".............             ............             .............",
".............             ............             .............",
".............             ............             .............",
".............             ............             .............",
".............             ............             .............",
".............             ............             .............",
".............             ............             .............",
"             .............            .............             ",
"             .............            .............             ",
"             .............            .............             ",
"             .............            .............             ",
"             .............            .............             ",
"             .............            .............             ",
"             .............            .............             ",
"             .............            .............             ",
"             .............            .............             ",
"             .............            .............             ",
"             .............            .............             ",
"             .............            .............             ",
"             .............            .............             ",
".............             ............             .............",
".............             ............             .............",
".............             ............             .............",
".............             ............             .............",
".............             ............             .............",
".............             ............             .............",
".............             ............             .............",
".............             ............             .............",
".............             ............             .............",
".............             ............             .............",
".............             ............             .............",
".............             ............             .............",
"             .............            .............             ",
"             .............            .............             ",
"             .............            .............             ",
"             .............            .............             ",
"             .............            .............             ",
"             .............            .............             ",
"             .............            .............             ",
"             .............            .............             ",
"             .............            .............             ",
"             .............            .............             ",
"             .............            .............             ",
"             .............            .............             ",
"             .............            .............             ",
".............             ............             .............",
".............             ............             .............",
".............             ............             .............",
".............             ............             .............",
".............             ............             .............",
".............             ............             .............",
".............             ............             .............",
".............             ............             .............",
".............             ............             .............",
".............             ............             .............",
".............             ............             .............",
".............             ............             .............",
".............             ............             ............."
};
