/* XPM */
static char *c7dbbb06b69943289dff8ea5b773492ejUhQ1MPorbq10pLP[] = {
/* columns rows colors chars-per-pixel */
"64 64 16 1 ",
"  c black",
". c gray16",
"X c #630000",
"o c gray26",
"O c gray39",
"+ c gray45",
"@ c #840000",
"# c #A50000",
"$ c #C60000",
"% c #F70000",
"& c #C6C600",
"* c #848484",
"= c #A5A5A5",
"- c #C6C6C6",
"; c #E7E7E7",
": c gray97",
/* pixels */
"++++++++++++++++++++++++++++++++++++++++++++++++++++++++++++++++",
"++++++++++++++++++++++++++++++++++++++++++++++++++++++++++++++++",
"++++++++++++++++++++++++++++++++++++++++++++++++++++++++++++++++",
"++++++++++++++++++++++++++++++++++++++++++++++++++++++++++++++++",
"++++++++++++++++++++++++++++++++++++++++++++++++++++++++++++++++",
"++++++++++++++++++++++++++++++++++++++++++++++++++++++++++++++++",
"++++++++++++++++++++++++++++++++++++++++++++++++++++++++++++++++",
"++++++++++++++++++++++++++++++++++++++++++++++++++++++++++++++++",
"++++++++++++++++++++++++++++++++++++++++++++++++++++++++++++++++",
"++++++++++++++++++++++++++++++++++++++++++++++++++++++++++++++++",
"++++++++++++++++++++++++++++++++++++++++++++++++++++++++++++++++",
"++++++++++++++++++++++++++++++++++++++++++++++++++++++++++++++++",
"++++++++++++++++++++++++++++++++++++++++++++++++++++++++++++++++",
"++++++++++++++++++++++++++++++++++++++++++++++++++++++++++++++++",
"++++++++++++++++++++++++++++++++++++++++++++++++++++++++++++++++",
"++++++++++++++++++++++++++++++++++++++++++++++++++++++++++++++++",
"++++++++++++++++++++++++++++++++++++++++++++++++++++++++++++++++",
"++++++++++++++++++++++++++++++++++++++++++++++++++++++++++++++++",
"++++++++++++++++++++++++++++++++++++++++++++++++++++++++++++++++",
"++++++++++++++++++++++++++++++++++++++++++++++++++++++++++++++++",
"+++++++++++++++. o.  .+++++++++++++++++++. ..   .+++++++++++++++",
"+++++++++++++++ .Oo.  +++++++++++++++++++ .oO.   +++++++++++++++",
"+++++++++++++++ .Oo.  +++++++++++++++++++ .oO.   +++++++++++++++",
"+++++++++++++++. o.  .+++++++++++++++++++ .oO.   +++++++++++++++",
"+++++++++++=*O*==.  ..++++++++-;:::;-%#....oO.   +++++++++++++++",
"+++++++++++;;-;;o.. ..++++++=;::::::::-%#.      .+++++++++++++++",
"+++++++++++::=::+. . +.++++=;::::::::::-%#.  .. o+++++++++++++++",
"+++++++++++::=:+o+ o .+.+++=::::::::::::-##@    .@###+++++++++++",
"+++++++++++::=:+.o o. +X#$==:::::::::::::-##@@@@@$$#-+++++++++++",
"+++++++++++::-:+o..X@#$%%%$-=====--------==$$$$$X%%#-+++++++++++",
"+++++++++++::==--;;oO$%%@X X@.**O*;;;;;;;;-=$%%XX%%#-+++++++++++",
"++++++++++=-;::::::=-;=$   ..*&&.:::::::::;;-=%XX%%#-+++++++++++",
"++++++++++=-;::::::=-;=$   ..*&&.:::::::::;;-=%XX%%#-+++++++++++",
"+++++++++++::==--;;oO$%%@X X@.**O*;;;;;;;;-=$%%XX%%#-+++++++++++",
"+++++++++++::-:+o..X@#$%%%$-=====--------==$$$$$X%%#-+++++++++++",
"+++++++++++::=:+.o o. +X#$==:::::::::::::-##@@@@@$$#-+++++++++++",
"+++++++++++::=:+o+ o .+.+++=::::::::::::-##@    .@###+++++++++++",
"+++++++++++::=::+. . +.++++=;::::::::::-%#.  .. o+++++++++++++++",
"+++++++++++;;-;;o.. ..++++++=;::::::::-%#.      .+++++++++++++++",
"+++++++++++=*O*==.  ..++++++++-;:::;-%#....oO.   +++++++++++++++",
"+++++++++++++++. o.  .+++++++++++++++++++ .oO.   +++++++++++++++",
"+++++++++++++++ .Oo.  +++++++++++++++++++ .oO.   +++++++++++++++",
"+++++++++++++++ .Oo.  +++++++++++++++++++ .oO.   +++++++++++++++",
"+++++++++++++++. o.  .+++++++++++++++++++. ..   .+++++++++++++++",
"++++++++++++++++++++++++++++++++++++++++++++++++++++++++++++++++",
"++++++++++++++++++++++++++++++++++++++++++++++++++++++++++++++++",
"++++++++++++++++++++++++++++++++++++++++++++++++++++++++++++++++",
"++++++++++++++++++++++++++++++++++++++++++++++++++++++++++++++++",
"++++++++++++++++++++++++++++++++++++++++++++++++++++++++++++++++",
"++++++++++++++++++++++++++++++++++++++++++++++++++++++++++++++++",
"++++++++++++++++++++++++++++++++++++++++++++++++++++++++++++++++",
"++++++++++++++++++++++++++++++++++++++++++++++++++++++++++++++++",
"++++++++++++++++++++++++++++++++++++++++++++++++++++++++++++++++",
"++++++++++++++++++++++++++++++++++++++++++++++++++++++++++++++++",
"++++++++++++++++++++++++++++++++++++++++++++++++++++++++++++++++",
"++++++++++++++++++++++++++++++++++++++++++++++++++++++++++++++++",
"++++++++++++++++++++++++++++++++++++++++++++++++++++++++++++++++",
"++++++++++++++++++++++++++++++++++++++++++++++++++++++++++++++++",
"++++++++++++++++++++++++++++++++++++++++++++++++++++++++++++++++",
"++++++++++++++++++++++++++++++++++++++++++++++++++++++++++++++++",
"++++++++++++++++++++++++++++++++++++++++++++++++++++++++++++++++",
"++++++++++++++++++++++++++++++++++++++++++++++++++++++++++++++++",
"++++++++++++++++++++++++++++++++++++++++++++++++++++++++++++++++",
"++++++++++++++++++++++++++++++++++++++++++++++++++++++++++++++++"
};
