/* XPM */
static char *_c6bfea9a17f480cef2ac8afd493532aY6J9yXD6NXOy66Xu[] = {
/* columns rows colors chars-per-pixel */
"64 64 16 1 ",
"  c black",
". c gray16",
"X c #630000",
"o c gray26",
"O c gray39",
"+ c gray45",
"@ c #840000",
"# c #A50000",
"$ c #C60000",
"% c #F70000",
"& c #C6C600",
"* c #848484",
"= c #A5A5A5",
"- c #C6C6C6",
"; c #E7E7E7",
": c gray97",
/* pixels */
"++++++++++++++++++++++++++++++++++++++++++++++++++++++++++++++++",
"++++++++++++++++++++++++++++++++++++++++++++++++++++++++++++++++",
"++++++++++++++++++++++++++++++++++++++++++++++++++++++++++++++++",
"++++++++++++++++++++++++++++++++++++++++++++++++++++++++++++++++",
"++++++++++++++++++++++++++++++++++++++++++++++++++++++++++++++++",
"++++++++++++++++++++++++++++++++++++++++++++++++++++++++++++++++",
"++++++++++++++++++++++++++++++++++++++++++++++++++++++++++++++++",
"++++++++++++++++++++++++++++++++++++++++++++++++++++++++++++++++",
"++++++++++++++++++++++++++++++++++++++++++++++++++++++++++++++++",
"++++++++++++++++++++++++++++++++++++++++++++++++++++++++++++++++",
"++++++++++++++++++++++++++++++++++++++++++++++++++++++++++++++++",
"++++++++++++++++++++++++++++++++++++++++++++++++++++++++++++++++",
"++++++++++++++++++++++++++++++++++++++++++++++++++++++++++++++++",
"++++++++++++++++++++++++++++++++++++++++++++++++++++++++++++++++",
"++++++++++++++++++++++++++++++++++++++++++++++++++++++++++++++++",
"++++++++++++++++++++++++++++++++++++++++++++++++++++++++++++++++",
"++++++++++++++++++++++++++++++++++++++++++++++++++++++++++++++++",
"++++++++++++++++++++++++++++++++++++++++++++++++++++++++++++++++",
"++++++++++++++++++++++++++++++++++++++++++++++++++++++++++++++++",
"++++++++++++++++++++++++++++++++++++++++++++++++++++++++++++++++",
"+++++++++++++++.   .. .+++++++++++++++++++.  .o .+++++++++++++++",
"+++++++++++++++   .Oo. +++++++++++++++++++  .oO. +++++++++++++++",
"+++++++++++++++   .Oo. +++++++++++++++++++  .oO. +++++++++++++++",
"+++++++++++++++   .Oo. +++++++++++++++++++.  .o .+++++++++++++++",
"+++++++++++++++   .Oo....#%-;:::;-++++++++..  .==*O*=+++++++++++",
"+++++++++++++++.      .#%-::::::::;=++++++.. ..o;;-;;+++++++++++",
"+++++++++++++++o ..  .#%-::::::::::;=++++.+ . .+::=::+++++++++++",
"+++++++++++###@.    @##-::::::::::::=+++.+. o +o+:=::+++++++++++",
"+++++++++++-#$$@@@@@##-:::::::::::::==$#X+ .o o.+:=::+++++++++++",
"+++++++++++-#%%X$$$$$==--------=====-$%%%$#@X..o+:-::+++++++++++",
"+++++++++++-#%%XX%%$=-;;;;;;;;*O**.@X X@%%$Oo;;--==::+++++++++++",
"+++++++++++-#%%XX%=-;;:::::::::.&&*..   $=;-=::::::;-=++++++++++",
"+++++++++++-#%%XX%=-;;:::::::::.&&*..   $=;-=::::::;-=++++++++++",
"+++++++++++-#%%XX%%$=-;;;;;;;;*O**.@X X@%%$Oo;;--==::+++++++++++",
"+++++++++++-#%%X$$$$$==--------=====-$%%%$#@X..o+:-::+++++++++++",
"+++++++++++-#$$@@@@@##-:::::::::::::==$#X+ .o o.+:=::+++++++++++",
"+++++++++++###@.    @##-::::::::::::=+++.+. o +o+:=::+++++++++++",
"+++++++++++++++o ..  .#%-::::::::::;=++++.+ . .+::=::+++++++++++",
"+++++++++++++++.      .#%-::::::::;=++++++.. ..o;;-;;+++++++++++",
"+++++++++++++++   .Oo....#%-;:::;-++++++++..  .==*O*=+++++++++++",
"+++++++++++++++   .Oo. +++++++++++++++++++.  .o .+++++++++++++++",
"+++++++++++++++   .Oo. +++++++++++++++++++  .oO. +++++++++++++++",
"+++++++++++++++   .Oo. +++++++++++++++++++  .oO. +++++++++++++++",
"+++++++++++++++.   .. .+++++++++++++++++++.  .o .+++++++++++++++",
"++++++++++++++++++++++++++++++++++++++++++++++++++++++++++++++++",
"++++++++++++++++++++++++++++++++++++++++++++++++++++++++++++++++",
"++++++++++++++++++++++++++++++++++++++++++++++++++++++++++++++++",
"++++++++++++++++++++++++++++++++++++++++++++++++++++++++++++++++",
"++++++++++++++++++++++++++++++++++++++++++++++++++++++++++++++++",
"++++++++++++++++++++++++++++++++++++++++++++++++++++++++++++++++",
"++++++++++++++++++++++++++++++++++++++++++++++++++++++++++++++++",
"++++++++++++++++++++++++++++++++++++++++++++++++++++++++++++++++",
"++++++++++++++++++++++++++++++++++++++++++++++++++++++++++++++++",
"++++++++++++++++++++++++++++++++++++++++++++++++++++++++++++++++",
"++++++++++++++++++++++++++++++++++++++++++++++++++++++++++++++++",
"++++++++++++++++++++++++++++++++++++++++++++++++++++++++++++++++",
"++++++++++++++++++++++++++++++++++++++++++++++++++++++++++++++++",
"++++++++++++++++++++++++++++++++++++++++++++++++++++++++++++++++",
"++++++++++++++++++++++++++++++++++++++++++++++++++++++++++++++++",
"++++++++++++++++++++++++++++++++++++++++++++++++++++++++++++++++",
"++++++++++++++++++++++++++++++++++++++++++++++++++++++++++++++++",
"++++++++++++++++++++++++++++++++++++++++++++++++++++++++++++++++",
"++++++++++++++++++++++++++++++++++++++++++++++++++++++++++++++++",
"++++++++++++++++++++++++++++++++++++++++++++++++++++++++++++++++"
};
