/* XPM */
static char *_aa46174f46f4d23f5df2f954efe2befD7goNvI3TLH9qzjW[] = {
/* columns rows colors chars-per-pixel */
"64 64 16 1 ",
"  c black",
". c gray16",
"X c #630000",
"o c gray26",
"O c gray39",
"+ c gray45",
"@ c #840000",
"# c #A50000",
"$ c #C60000",
"% c #F70000",
"& c #C6C600",
"* c #848484",
"= c #A5A5A5",
"- c #C6C6C6",
"; c #E7E7E7",
": c gray97",
/* pixels */
"++++++++++++++++++++++++++++++++++++++++++++++++++++++++++++++++",
"++++++++++++++++++++++++++++++++++++++++++++++++++++++++++++++++",
"++++++++++++++++++++++++++++++++++++++++++++++++++++++++++++++++",
"++++++++++++++++++++++++++++++++++++++++++++++++++++++++++++++++",
"++++++++++++++++++++++++++++++++++++++++++++++++++++++++++++++++",
"++++++++++++++++++++++++++++++++++++++++++++++++++++++++++++++++",
"++++++++++++++++++++++++++++++++++++++++++++++++++++++++++++++++",
"++++++++++++++++++++++++++++++++++++++++++++++++++++++++++++++++",
"++++++++++++++++++++++++++++++++++++++++++++++++++++++++++++++++",
"++++++++++++++++++++++++++++++++++++++++++++++++++++++++++++++++",
"+++++++++++++++++++++++++++++++==+++++++++++++++++++++++++++++++",
"++++++++++++++++++++++++=;:::::--:::::;=++++++++++++++++++++++++",
"++++++++++++++++++++++++*;:::::;;:::::;*++++++++++++++++++++++++",
"++++++++++++++++++++++++O-===-=::=-===-O++++++++++++++++++++++++",
"++++++++++++++++++++++++*;::::=::=::::;*++++++++++++++++++++++++",
"++++++++++++++++++++.  .=;:+++-::-+++:;=.  .++++++++++++++++++++",
"++++++++++++++++++++ .. =o+o.o-::-o.o+o= .. ++++++++++++++++++++",
"++++++++++++++++++++oOOo...+o.;::;.o+...oOOo++++++++++++++++++++",
"++++++++++++++++++++.oo. .   .;::;.   . .oo.++++++++++++++++++++",
"++++++++++++++++++++ ..   .ooXo==oXoo.   .. ++++++++++++++++++++",
"++++++++++++++++++++    ..  .@O--O@.  ..    ++++++++++++++++++++",
"++++++++++++++++++++.  ...+. #$;;$# .+...  .++++++++++++++++++++",
"++++++++++++++++++++++++++.++$%==%$++.++++++++++++++++++++++++++",
"+++++++++++++++++++++++++++.X%%$$%%X.+++++++++++++++++++++++++++",
"++++++++++++++++++++++++++++#%@  @%#++++++++++++++++++++++++++++",
"++++++++++++++++++++++++++++$%X  X%$++++++++++++++++++++++++++++",
"++++++++++++++++++++++++++++=$    $=++++++++++++++++++++++++++++",
"++++++++++++++++++++++++++===-X..X-===++++++++++++++++++++++++++",
"+++++++++++++++++++++++++=;::=@..@=::;=+++++++++++++++++++++++++",
"+++++++++++++++++++++++++;:::=.**.=:::;+++++++++++++++++++++++++",
"++++++++++++++++++++++++-::::=*&&*=::::-++++++++++++++++++++++++",
"++++++++++++++++++++++++;::::=*&&*=::::;++++++++++++++++++++++++",
"++++++++++++++++++++++++:::::=O..O=:::::++++++++++++++++++++++++",
"++++++++++++++++++++++++:::::-*::*-:::::++++++++++++++++++++++++",
"++++++++++++++++++++++++:::::-;::;-:::::++++++++++++++++++++++++",
"++++++++++++++++++++++++;::::-;::;-::::;++++++++++++++++++++++++",
"++++++++++++++++++++++++-::::-;::;-::::-++++++++++++++++++++++++",
"++++++++++++++++++++++++%::::-;::;-::::%++++++++++++++++++++++++",
"++++++++++++++++++++++++#-:::-;::;-:::-#++++++++++++++++++++++++",
"++++++++++++++++++++++++.%-::-;::;-::-%.++++++++++++++++++++++++",
"++++++++++++++++++++++++.#%-:-;::;-:-%#.++++++++++++++++++++++++",
"++++++++++++++++++++.   ..##-=;::;=-##..   .++++++++++++++++++++",
"++++++++++++++++++++ .... .##=-;;-=##. .... ++++++++++++++++++++",
"++++++++++++++++++++.oooo  @#$=;;=$#@  oooo.++++++++++++++++++++",
"++++++++++++++++++++.OOOO   @$$--$$@   OOOO.++++++++++++++++++++",
"++++++++++++++++++++ .... . @$%==%$@ . .... ++++++++++++++++++++",
"++++++++++++++++++++      . @$%%%%$@ .      ++++++++++++++++++++",
"++++++++++++++++++++        @$XXXX$@        ++++++++++++++++++++",
"++++++++++++++++++++.    .o.@XXXXXX@.o.    .++++++++++++++++++++",
"+++++++++++++++++++++++++++@$%%%%%%$@+++++++++++++++++++++++++++",
"+++++++++++++++++++++++++++#$%%%%%%$#+++++++++++++++++++++++++++",
"+++++++++++++++++++++++++++##########+++++++++++++++++++++++++++",
"+++++++++++++++++++++++++++#--------#+++++++++++++++++++++++++++",
"++++++++++++++++++++++++++++++++++++++++++++++++++++++++++++++++",
"++++++++++++++++++++++++++++++++++++++++++++++++++++++++++++++++",
"++++++++++++++++++++++++++++++++++++++++++++++++++++++++++++++++",
"++++++++++++++++++++++++++++++++++++++++++++++++++++++++++++++++",
"++++++++++++++++++++++++++++++++++++++++++++++++++++++++++++++++",
"++++++++++++++++++++++++++++++++++++++++++++++++++++++++++++++++",
"++++++++++++++++++++++++++++++++++++++++++++++++++++++++++++++++",
"++++++++++++++++++++++++++++++++++++++++++++++++++++++++++++++++",
"++++++++++++++++++++++++++++++++++++++++++++++++++++++++++++++++",
"++++++++++++++++++++++++++++++++++++++++++++++++++++++++++++++++",
"++++++++++++++++++++++++++++++++++++++++++++++++++++++++++++++++"
};
