/* XPM */
static char *_57ed032b9054435c035eab4b085e6a4dx1HUTgofT1wnzkX[] = {
/* columns rows colors chars-per-pixel */
"64 64 19 1 ",
"  c #97BA43",
". c #97BB44",
"X c #98BB44",
"o c #9BBE47",
"O c #9CBF47",
"+ c #9BBE48",
"@ c #9CBF49",
"# c #9CC047",
"$ c #9EC149",
"% c #9FC34C",
"& c #9FC44C",
"* c #A0C34B",
"= c #A1C44B",
"- c #A0C34C",
"; c #A2C54D",
": c #A4C74E",
"> c #A3C84E",
", c #A6C94F",
"< c #A6C950",
/* pixels */
"<<;o;<,,,<<<:o$<<,,<<<<@@,<,:<<<<$o<<,,,<<<;o;,,,,<<<:+$<<,,<<<<",
"<<,:,<,$=<<<,;<<<$$<<<<;,<<=$<<<<:,<<;$:<<<,:,,,$;<<<,::<<$$<<<<",
"<<<<,:,;;,,<<<,,,;;<<<<<,,,:;<<<<<<,,:;,,<<<<<:,;:<<<<<<,,;;<<<<",
"<,,<:o,,<;:,<<,$;,<;;<<<,*$,,,*,<<<:o,<<*<<<<<o<<<;:<<<<$:<<;;,<",
",;o;,=<<,$;,o*,;:<,;*,o$,;;<<,$:$@>,;<<<$:;o;<=<<<*;,o$<;,<,;=,o",
",;;,<,<<,,,,=:<<<<,,,,;:<<<<<,,,;;,,,<<<,,:;,<,<<<,,,=:<,,<,,,,=",
",,,,;,<,;:<,,,;;<<:;,,,<>;<<,*,,,,,;<<,=,,,,,=,<,;;,,,<;:<<:;<,,",
",;;,;,<:$;,;;,;:<<=$,;;<,;<<;O,:;:,=<<:@,,;;,;,<,$=,;=<;:<<;$<;*",
",*;<,,;,,<,*;<,,;<,,,=;,,,::<,,;=:,,,:<,,,*;,,,;<,,,*=,,,;<<<<;*",
"<,:;:<;,,<<<,;;<;<,<<,,;=<;;,<<,,;=,:;<<<<,:=,<=<<<<<,=;<=,<<<<<",
"<,;$:<,;:<<<,$;,,;;<<<,$-<,;;<<<,=$,,:;,<<,;$:<:;:<<<:$;<,;;<<<<",
"<,,,,<,$;<<<,,,,<$$<<<<,,<<*@<<<<,,<,;$;<<<,,,<:$;<<<,,,<,$$<<<<",
"<<<,,;,<<,,<<<,:,<<,,<<<,,:,<,,<<<<,:<<<,<<<<<;<<<,,<<<<:,<<,,<<",
",:;,:o,<,*;,;:,$;<<;;,;:,$$,<,$,;;,,o<<<$>,;,,.<<<;;<;:<o:<<;;,;",
",;$;,;<<,$;,O;,:,<<;*,$*,::<<,$,$$,,;<<<O,;$;,;<<<*;<o;<;,<<;*,O",
",:;,,,<,,<<<;:,,<<<<,,;;,<<<<,,<;;,<<<<<,<:;,<<<<<<<<;:,,<<<<,,;",
"<<,,$,<:$;,,,,=;<<*$<<<<:*<<;o<<<<<#<<:o:<<,,$,<,$*<<,,=;<<;o<<<",
",+$<<<<<,,<#@<<<<<,,<$o<<<<<,:<;o;<<<<,:,:O$<<<<<,,,$O,<<<<::,$o",
",:,,,,=<<<<:,,,<;<<<<,,,,<;:<<<,,,,<:;,<<,,,,,<;<<<<:,,,<;,<<<,:",
"<<:=:,=<<<<<,;;<;<<<<<<;;,;;<<<<<;=<:;,<<<<:*:<=<<<<<,=;<=,<<<<<",
"<<;*:<,*;<<<,*;<<**<<<<*;,<;$<<<<;$<,;$:<<<;*:<,*;<<<,*;<,*;<<<<",
"<<<,,,,=;<<<,,<<<;;<<<<<<,,;*<<<<<<<,:=:<<<<<<<,;;,<<<<<<<;;,<<<",
"<<<<:$,,,<<<<<,*:,,,,<<<,;;,,<<<<<<,$,,,<<<<<,$,,,,<<<<,*,,,,<<<",
"<,,,,o<<,o*,::<$;<,*#,,:<*$<<: :,;,,o,<< ;,>,,o,<<O$<::<@:<<*$:,",
",*o;,<<,,;,, -<<<<,,:<X$,,<<<,;,O+:<<<<,;<;X;,<<<<;,< *<<<<<::, ",
"<<<,;,,,;:<<<,::<<:;<<<<,;<<,=<<<<<;,<,;,<,,,;,<<;:,<,,:,,<,;,<,",
",;;,;,,,*;<:;,;;<<;*,:;<:;<<;$<,;,<*,<,$,,;;<=,<,*;,;;<;;,<;$,:;",
",*;,,,<,:,,*=<,,<<::,=$<,,<<,;<;$:<,<<,;,,*;<,,,,:,<**<,,<<,:<;$",
",,,,,<@<<<,,,<<<$,<<,,,<<<;;<<<,,,,<;-<<<,,,<<<$,<<<,,<<<$<<<<,,",
"<<;@;<,,,<<<,#*<<,,<<<<$$<<,,<<<,$o<,,,,<<<;@:<,,,<<<:$-<<,,<<<<",
"<<:;,<,$;<<<,;,<<$$<<<<;:<<=$<<<<;;<,;$:<<<:;,<,$;<<<,;:<<$%,<<<",
"<<<<<,,;;,,<<<<,,=;,,<<<<,,;=<<<<<<,,:;,<<<<,,,,;:<<<<,,,,;;,,<<",
"<<<<:o,,,;:<,,,$;,<:;,<<,*$<,,;<,,,:o<,,;<<<<<o<<<;:<,<<@:<<;;,<",
",;O;,*,<,$;,o=,;,<,;$,@$,;;<<,@:$$,,=<<<o;;O;<*<<,$;<o-<;,<,=*:o",
",:*:<<<<<:,,$;<<<<,,,,*;<<<<<,:,;;,,,<<<:,:*:<<<<,,,<$:<<<<,,,,$",
",,,,;,<,;:,,,,;:<<:;,,,<>;,<,;<<,,,;<<,;,<,,,;,<,::<<,<;:<<,;,<,",
",;;,=,,:$;,;;,;:<<=$,;=,:=,,;o<:;:,*<<:O,,;;,=,<,$=,;;,;:<<;$,:=",
",*;<,,;,,<<*=<,,;<,,<;*,,,:,<,<;*:<,,:<,,,*;<,,;<,,,*;,,,;<,,,=$",
"<<,;,<=<<<<<,;:<=<<<<<<;;,;;<<<<,:;,:;<<<<,,;,,=<<<<<,;:,=<<<<<<",
"<<;$:<:;:<<<,$;<,;:<<<<$*<,;;<<<<*$<,:;,<<<;$:<,;,<<<:$;,,;:<<<<",
"<<,,,<,@*<<<,,,<<@#<<<<::<<$O<<<<,:<<;O;<<<,<<<:@*<<<,,,<,@$<<<<",
"<<<<,:<<<,,<<<,:,<<,,<<<,,,,<,,<<<<,:<<<,<<<<<;<<<,,<<<<:,<<,,<<",
",,:,:o<<<;:,:,,@;<<;;,::,*$,<,*,::,:o,<<*,,:,,o,<<;:,;,<O:<<;;,:",
",;$;,=<<<$;,O=<;,<<;$,$*,:;,<,@:$$,,;,<<O:;$;,;,<<*;,O;<;,<<;*,@",
",:=,,,<<,,,<*:,,,<,,,,;;,<<<<,,,;;,<<<<<,<:=,,<<<,,<<=:<<<<,,,,=",
"<<<<$,<:$=,<,,;;<,*$<<<<:*<<;o<,,<<$<<:o,<,,,$,<,$$,<<<;;<<;O,<,",
",$$<,,<,;:,$@<,,<,:;<*O<,,<<:;,;O;<,<<,;,,$*<,,<,;:,$$<,,<<,;,*o",
",;,,,<;,<<<;,,,<;<<<<::<,<::<<<,;,,<,;,<<,;,,,<;<<<<;:,,<;<<<<:;",
"<<:;:<*<<<<<,;;<=<<<<<<;;<;;,<<<<;=<:;,<<<<:=,<=<<<<<,;;<*<<<<<<",
"<<;*:<,*;<<<,$;<<&-<<<<$=<<;*<<<<;$<<;-;<<<;$:<,*;<<<:$;<<*;<<<<",
"<<,,<,,*;<<<,,<<<**,<<<,,<<;*<<<<,,<<;*:<<<,,,<,*;<<<<,,<<**<<<,",
"<<<<:=,,,<<<<<,=:,,,<<<<,;;,,<<<<<<,=,,,<<<<<<$,,,<<<<<<;,,,<<<,",
"<<,,: ,<,O;,,,,o;<,=$,<<<$$<<,o,<<<,o,<< :,,<, <<<$*<<<<o:<<=$,<",
",*X;,,<<,;:, $<<<<<:;,X$<<<<<,;,Oo:<<<<,;,;X;<<<<,;;< $<<<<,;;, ",
"<<<,:,<,:,<<<<,,<<,:,<<<,:<<,;<<<<,;<<,;,<<<<;,<<::,<,,:,,<,:<<,",
",;:,=,<,*;,:;,;;<<;*,:;<:;<<:$,,;,,*<<,$,,;:<=,<,*;,:;,;;,<;$<:;",
",$;,:,<,:,,$*,,,<<::<;$<,,<<,;,;$:<:<<,;,,$;<:,,,;:,**<,,<<:;<;$",
",,,<<<#,,,<,,,<<$<<<<,,<<<=;<<,,,,<<;=<,,,,,<<<$,,,,,,<<<$<<<<,,",
"<<;@;<<,,<<<,$*<,<<<<<,$$<<<<<<<,*$<<<,,<<,=@:<<<<<<<:$-,<<<<<<<",
"<<:;,<,$;<<<,;:<,$*<<<<=:<,=$<<<<;;<,;$><<<:;,<,$;<<<,;;<,*$<<<<",
"<<<<<<,=;<<<<<<<,=;,<<<<<<<;;,,<<,,<<:;:<<<<<<<,;;,,<<<<<<;;,,<<",
"<<,,:o,,<;:,,,,$;,,,:<<,,=$,,,;,<<<:O<<<;<,,<<o,,,;,<<<<#:<,::,<",
",;$;,$<<,$;,$;,=:<<;$,$$,;;<<,o:*$,,*<<<o:;$;<$<<,$;<$;<*,<,;*,$",
",;$:<,<<,:,,$;<,,<<,:,$;<,,<<,:,**,,,<<<:,;$:<,<<<:,<$;<,,<<,,,$"
};
