/* XPM */
static char *_6a2c378ea7046c4d55b089133841fd4CFxgvzjNcdwEtI82[] = {
/* columns rows colors chars-per-pixel */
"64 64 26 1 ",
"  c #172634",
". c #162D3A",
"X c #153646",
"o c #143E53",
"O c #1A5250",
"+ c #1A5755",
"@ c #195D5D",
"# c #114E6D",
"$ c #185360",
"% c #196366",
"& c #226663",
"* c #0A6D92",
"= c #147390",
"- c #0B7DB3",
"; c #1C8192",
": c #138EA8",
"> c #1B9DB6",
", c #0594CC",
"< c #1EB4C0",
"1 c #01A3DB",
"2 c #26BECC",
"3 c #0AB3E0",
"4 c #26C3CE",
"5 c #1CD4EB",
"6 c #28E9F2",
"7 c #65E8ED",
/* pixels */
"................  .........  ........  ..........   ..-......  -",
"...1.  ... ..o..O ..XX...-.   .......  ..#..1....  ....  .......",
"  ...   ........&..XooX.....  XX...-.........  .. ..  .  ..  ...",
"   ...   ..-..+&7&+X#oX.......XX.......XXXX..   ....   ...   ...",
".  o...  .......&...XX..  .......6....X####X..  .XX..   .   ....",
".............1..+.#  ...   .#.  .....X#****#X...XoX.-.     .#.. ",
".....-...  ...  ...   ...  ..   ....X#*,11-*#X..XX... .   ..... ",
"..  .....  ...   ...  o.....   ....X#*,**13*#X.  ...       .XX..",
".   .....XXX...  ........1.  ..o..X#*-*#*13*#X.. ...       XoX..",
".  .6...XoooX.....  .....     ....X#**#*151#X.....X.      .XX...",
"........Xo##oX....   ...    .......X##*561*##X  ...   . .  ...#.",
".  ..  .Xo#>$oX....   .     .1..  ..X#165*#**#  ..         .  ..",
"   ..   .Xo$=#oX....    .  ....   .X#*51*#*-*#..     ..   ..   .",
"  ..XX  ..Xo##oX  ...  .-.  ...  ..X#*31**,*#X..  #  ..  .-..   ",
".-..XX.....XoooX  .     .   .......X#*-11,*#X..     ..........  ",
"..........6.XXX..... o    ....XXX...X#****#X...  o .1..  ....1..",
"  .o..............1      ..1.XoooX...X####X...     .  ..........",
"   ....  ...  ..  .  .  ....Xo##oX....XXXX...     ..  .-..XX... ",
".  ....   ..   .    .-.  ..Xo#-#oX.  .......-  ..XXX......XXX.  ",
"....-...  ...  ..    .   .Xo#-#oX.    ...  .....XoooX..  ..XX.  ",
".....  +..........      ..Xo##oX..    ..   .  ..Xo##oX.   ...#..",
"  ..+  +.........#      ..XoooX....  ...  ..   .Xo#-#oX.  ......",
"   . +.;...-.XX....XX.  ...XXX........1......  ..Xo#-#oX...... .",
".  ...+4+...XoX...XoX   .  ....  ......  ..#......Xo##oX.. .1...",
"....+:274;+XoX  ..XX   ..  ....   ..-.   ..  .  ...XoooX....... ",
"......+4+..XX.   ...  ........XX   ..   .6      .  .XXX..1....  ",
".......:.+.....  ..#.  .  .-.XoX.  ..  ..   . -    .......  .   ",
".-.....+..+ ..o.....   .   .XXX.........   ..    ......  .  .  .",
"...  ..+..  ..  ...   ...   XX......XXX.    .     .-...    .....",
"..   ........   ...  ..  .  .....1.XoooX.        ......   .#....",
"..  .XXX.....  ........  ....  ...Xo##oX..   .  ..  .oX.........",
"....XoooX..1....-  ......-..   ..Xo#-#%X.........   .XX.....  ..",
"....Xo##oX.......   .XX.....  ..Xo#-#o:..  ....#-  ......-..   .",
".  .Xo#-#oX...       oX.........Xo##o@4+.   ...........  ....  .",
"   1.Xo#-#oX..     .  ..  .#....Xooo;474:.  ..  ...  ..  .  ....",
"  ..  Xo##oX..    .-.     .......XXX.+<+..-.o   ...   ...   XX..",
"....   XoooX. . .. .  .  .  .  .......;......  .....   .   .XXX.",
".....  .XXX. .-..   ......  .   ...  .+  ...6... ..#.  .  .-.XoX",
"..#...  ..    . .  .XXX..1....   .   Xo  ....... .............XX",
"....            ...XoooX.......  .  .XX..#...  ...XX.  ..  .... ",
"  .    .   ..   ..Xo##oX.. .1.............  .   ..XoX   .  .... ",
"      .1. ...  ..Xo#-#oX...... ...-......       ...XX.  ...XXX..",
"   .   .  .#....Xo#-#oX.  ..........o....     ...#........X##oX.",
"....o.     .....Xo##oX.   ...#..6  ...  .  .   ...  ..  ..X#-#o.",
".....  .    .6..XoooX..  ..XX.  .   ..    .-.  ..   ..   .Xo##o.",
"..-..    .  .  ..XXX......XXX.       .     .  ..   ..-.  ..XooX.",
"......  .#.     ....  .-..XX...   .           ..  ..............",
"....     .  ..  ....  .........  .#.    ...  .....1....  ..1....",
"  ..  .     ..XoooX.1..  ....1.   .      ...o.  .....o   ...  ..",
"   ..       ..Xo##oX..........       ..  ....     ....  ..    ..",
".  -..  ..   .Xo#-#oX..  .-..       ..   ....       ....-.  ... ",
".....  ...    .Xo#-#oX.   ..   ..  ...  ...-...       ......... ",
"..  .   .     ..Xo##oX..  ..  ...........  ...    .   .  .  .1..",
".   ..  ..   ....XoooX........#.........+   ..       ..     ....",
".  ......1........XXX...  .XX....XX.-...;.  .   .    ....  .  ..",
"....#..  ......  ....  .   XoX...XoX...+4+...         ...1.   .o",
"  .  ..   .-..   ....  ..  .XX..  XoX+;472:+...  ...  o....    .",
"  .   6.   ..   XX.............   .XX..+4+.........   ...  ..   ",
" -..  ...  ..  .XoX.-.  .  .#..  .......:.......+.#  ...   .#.  ",
".......  ........XXX.   .   .....o..  ..+.......&...XX..  ......",
"  ..  .   ........XX   ...   ...  ..  .....  .+&7&+X#oX.......XX",
"  .   .. o ...1.....  .  ..  ...   ........   ..&..XooX.....  XX",
"...  ....  ............  ........  .....X...  ..O ..XX...-.   ..",
"......................-.............1...........  .........  ..."
};
